HIERARCHY
ROOT Hips
{
    OFFSET 0.000000 0.000000 0.000000
    CHANNELS 6 Xposition Yposition Zposition Zrotation Xrotation Yrotation
    JOINT Spine
    {
        OFFSET -0.000000 14.517291 0.000000
        CHANNELS 3 Zrotation Xrotation Yrotation
        JOINT Spine1
        {
            OFFSET -0.000000 37.558300 0.000000
            CHANNELS 3 Zrotation Xrotation Yrotation
            JOINT Neck
            {
                OFFSET -0.000000 37.404057 3.400369
                CHANNELS 3 Zrotation Xrotation Yrotation
                JOINT Head
                {
                    OFFSET -0.000000 24.785618 -3.540803
                    CHANNELS 3 Zrotation Xrotation Yrotation
                    End Site
                    {
                        OFFSET -0.000000 35.408028 0.000000
                    }
                }
            }
            JOINT LeftShoulder
            {
                OFFSET 6.992933 33.973492 -0.192664
                CHANNELS 3 Zrotation Xrotation Yrotation
                JOINT LeftArm
                {
                    OFFSET 21.527611 0.000000 0.000000
                    CHANNELS 3 Zrotation Xrotation Yrotation
                    JOINT LeftForeArm
                    {
                        OFFSET 56.353916 0.000000 0.000000
                        CHANNELS 3 Zrotation Xrotation Yrotation
                        JOINT LeftHand
                        {
                            OFFSET 47.774071 0.000000 0.000000
                            CHANNELS 3 Zrotation Xrotation Yrotation
                            End Site
                            {
                                OFFSET 26.556021 0.000000 0.000000
                            }
                        }
                    }
                }
            }
            JOINT RightShoulder
            {
                OFFSET -7.065357 33.973492 -0.192664
                CHANNELS 3 Zrotation Xrotation Yrotation
                JOINT RightArm
                {
                    OFFSET -21.527611 0.000000 0.000000
                    CHANNELS 3 Zrotation Xrotation Yrotation
                    JOINT RightForeArm
                    {
                        OFFSET -56.353916 0.000000 0.000000
                        CHANNELS 3 Zrotation Xrotation Yrotation
                        JOINT RightHand
                        {
                            OFFSET -47.774071 0.000000 0.000000
                            CHANNELS 3 Zrotation Xrotation Yrotation
                            End Site
                            {
                                OFFSET -26.556021 0.000000 0.000000
                            }
                        }
                    }
                }
            }
        }
    }
    JOINT LeftUpLeg
    {
        OFFSET 17.704014 0.000000 0.000000
        CHANNELS 3 Zrotation Xrotation Yrotation
        JOINT LeftLeg
        {
            OFFSET -0.000000 -81.181816 0.000000
            CHANNELS 3 Zrotation Xrotation Yrotation
            JOINT LeftFoot
            {
                OFFSET -0.000000 -62.821102 0.000000
                CHANNELS 3 Zrotation Xrotation Yrotation
                JOINT LeftToeBase
                {
                    OFFSET -0.000000 -11.507608 26.556021
                    CHANNELS 3 Zrotation Xrotation Yrotation
                    End Site
                    {
                        OFFSET -0.000000 0.000000 7.081605
                    }
                }
            }
        }
    }
    JOINT RightUpLeg
    {
        OFFSET -17.704014 0.000000 0.000000
        CHANNELS 3 Zrotation Xrotation Yrotation
        JOINT RightLeg
        {
            OFFSET -0.000000 -81.181816 0.000000
            CHANNELS 3 Zrotation Xrotation Yrotation
            JOINT RightFoot
            {
                OFFSET -0.000000 -62.821102 0.000000
                CHANNELS 3 Zrotation Xrotation Yrotation
                JOINT RightToeBase
                {
                    OFFSET -0.000000 -11.507608 26.556021
                    CHANNELS 3 Zrotation Xrotation Yrotation
                    End Site
                    {
                        OFFSET -0.000000 0.000000 7.081605
                    }
                }
            }
        }
    }
}
MOTION
Frames:    13
Frame Time:    0.008333
-4.895407    157.120346    -65.649094    0.401868    -3.832151    -48.829922    -0.539158    1.341852    0.296654    -0.410811    2.573475    0.104912    14.854721    -1.497939    14.202639    -8.787539    8.705392    11.798735    11.973271    -0.712625    -18.434206    -10.733631    -17.537243    -43.791645    6.856964    -38.976028    -26.203411    -23.645475    -29.583652    -44.322041    -8.641330    3.024018    -0.997002    34.980335    5.607677    76.933578    7.765407    -1.369760    105.554581    2.346523    -11.159720    19.666470    16.417057    -29.366556    -6.801179    -10.422899    16.453732    -7.594803    -28.430592    10.073895    36.992165    0.000000    0.000000    0.000000    -1.378237    -5.957873    1.867661    8.672637    37.525101    -2.400935    -9.718994    -24.277205    -19.336323    0.000000    0.000000    0.000000    
-4.572373    157.226364    -65.943596    0.474949    -3.958518    -48.793766    -0.548648    1.388512    0.238771    -0.477070    2.545304    0.086971    14.754369    -1.353651    14.191132    -8.773112    8.542319    11.810567    11.849203    -0.692674    -18.498138    -10.667328    -17.567768    -43.719864    6.865155    -38.975456    -26.274303    -23.638769    -29.577145    -44.334850    -8.642345    3.159358    -0.922329    35.061058    5.562434    76.958870    7.794691    -1.306900    105.465286    2.293415    -11.128339    19.691744    16.691162    -29.277735    -6.856226    -10.513392    16.889845    -7.630663    -27.904043    10.157911    36.777309    0.000000    0.000000    0.000000    -1.490145    -6.100338    1.899995    8.630818    37.509686    -2.396849    -9.666429    -24.118418    -19.358204    0.000000    0.000000    0.000000    
-4.243114    157.333923    -66.224876    0.569486    -4.061995    -48.781097    -0.547927    1.387004    0.214902    -0.586255    2.584887    0.082082    14.723879    -1.372937    14.198835    -8.751056    8.534376    11.821926    11.840423    -0.697488    -18.452852    -10.679152    -17.596540    -43.805073    6.903592    -39.014923    -26.295481    -23.723774    -29.572889    -44.370975    -8.626183    3.127484    -0.886456    35.126133    5.625270    76.912735    7.859843    -1.279794    105.453224    2.265142    -11.190638    19.642378    16.992962    -29.195810    -6.941712    -10.636711    17.266558    -7.641875    -27.425909    10.277047    36.721600    0.000000    0.000000    0.000000    -1.632248    -6.284072    2.122029    8.791762    37.483620    -2.586511    -9.689602    -23.927067    -19.415401    0.000000    0.000000    0.000000    
-3.928518    157.431808    -66.476151    0.642397    -4.164266    -48.784000    -0.572149    1.408540    0.205874    -0.609617    2.592056    0.078827    14.616879    -1.371299    14.181074    -8.705453    8.527990    11.823669    11.771484    -0.718846    -18.466003    -10.662447    -17.591274    -43.811657    6.915686    -39.034164    -26.351078    -23.685499    -29.612148    -44.328999    -8.649135    3.199946    -0.870958    35.159760    5.631331    76.918785    7.882115    -1.255727    105.407410    2.223671    -11.194399    19.655346    17.331463    -29.093573    -6.995379    -10.793541    17.662104    -7.639488    -27.004280    10.370665    36.700573    0.000000    0.000000    0.000000    -1.703443    -6.403839    1.924287    8.452097    37.452198    -2.359313    -9.580733    -23.814259    -19.257124    0.000000    0.000000    0.000000    
-3.604100    157.533630    -66.718544    0.713838    -4.261781    -48.793663    -0.550907    1.409416    0.202357    -0.724204    2.640971    0.080532    14.667208    -1.311312    14.196804    -8.817944    8.454242    11.826508    11.796806    -0.720730    -18.438137    -10.686923    -17.614166    -43.889763    6.945376    -39.061253    -26.336782    -23.734495    -29.602337    -44.406162    -8.593729    3.213452    -0.863833    35.148178    5.672065    76.914673    7.906634    -1.235810    105.360031    2.216332    -11.199963    19.624439    17.665846    -28.975409    -7.066772    -10.905681    18.034821    -7.704318    -26.547628    10.534376    36.692280    0.000000    0.000000    0.000000    -1.818401    -6.549730    1.948664    8.398490    37.427803    -2.338112    -9.516361    -23.654991    -19.208635    0.000000    0.000000    0.000000    
-3.288712    157.628586    -66.939499    0.774040    -4.329125    -48.838741    -0.575592    1.665585    0.294419    -0.756548    2.373246    0.109622    14.713373    -1.626610    14.178196    -8.790820    8.826025    11.788813    11.973710    -0.756234    -18.240030    -10.951087    -17.523584    -44.224205    7.004427    -39.096569    -26.419182    -23.710152    -29.652229    -44.322639    -8.544496    3.236260    -1.206837    35.072151    5.865459    77.047661    7.921668    -1.212932    105.445488    2.104488    -11.233142    19.565199    18.045160    -28.845026    -7.048847    -10.996005    18.352663    -7.829040    -26.285173    10.671851    36.860329    0.000000    0.000000    0.000000    -1.892707    -6.706517    1.962875    8.282097    37.413574    -2.264730    -9.434258    -23.498158    -19.155746    0.000000    0.000000    0.000000    
-2.967360    157.715363    -67.142410    0.840454    -4.411173    -48.863594    -0.506472    1.463677    0.218080    -0.856450    2.603667    0.088456    14.584612    -1.347599    14.210072    -8.775322    8.593779    11.862862    11.790097    -0.698121    -18.374962    -10.698110    -17.540909    -43.970310    6.998005    -39.124218    -26.418344    -23.717236    -29.661892    -44.415943    -8.579671    3.266302    -0.825834    35.178619    5.758445    76.853706    8.073934    -1.040715    105.316292    2.226693    -11.217941    19.549486    18.383057    -28.693953    -7.043554    -11.039228    18.621702    -7.898229    -26.060467    10.853040    36.979000    0.000000    0.000000    0.000000    -2.010440    -6.850002    2.020030    8.257569    37.394165    -2.222706    -9.419872    -23.348225    -19.138697    0.000000    0.000000    0.000000    
-2.641331    157.801041    -67.336334    0.935203    -4.450563    -48.906536    -0.495088    1.434287    0.224052    -0.855851    2.576801    0.090284    14.458973    -1.284861    14.201775    -8.756951    8.588204    11.883656    11.698369    -0.718432    -18.388172    -10.663086    -17.465883    -43.919918    7.021389    -39.121635    -26.449802    -23.776796    -29.640547    -44.367798    -8.634407    3.373478    -0.788721    35.164524    5.736167    76.874588    8.137600    -0.944351    105.247780    2.190144    -11.200667    19.501020    18.751732    -28.570084    -7.016851    -11.096758    18.846478    -7.910744    -25.825056    11.022970    37.084366    0.000000    0.000000    0.000000    -2.098284    -7.085822    2.241824    8.328851    37.429234    -2.384283    -9.341820    -23.186335    -19.150572    0.000000    0.000000    0.000000    
-2.325822    157.871216    -67.515388    1.012526    -4.510657    -48.962879    -0.486011    1.444433    0.241351    -0.918908    2.577273    0.097777    14.542773    -1.289215    14.244876    -8.907178    8.628443    11.907786    11.734454    -0.707345    -18.297596    -10.690703    -17.444115    -44.001255    7.037889    -39.135937    -26.474356    -23.845732    -29.618324    -44.403881    -8.620344    3.337940    -0.780094    35.142849    5.813714    76.831741    8.180663    -0.865397    105.234184    2.137398    -11.185570    19.514517    19.120621    -28.415173    -6.912964    -11.153043    19.070307    -8.000044    -25.560919    11.155884    37.228897    0.000000    0.000000    0.000000    -2.190104    -7.273215    2.370366    8.297668    37.443916    -2.331891    -9.620800    -23.017832    -19.205421    0.000000    0.000000    0.000000    
-2.004065    157.935669    -67.687073    1.098925    -4.549554    -48.999275    -0.468443    1.421212    0.244139    -0.958976    2.578422    0.100189    14.479931    -1.318815    14.249356    -8.864845    8.701321    11.927390    11.719853    -0.708428    -18.289452    -10.644919    -17.373480    -43.968643    7.058388    -39.181507    -26.502541    -23.870340    -29.653975    -44.405872    -8.618635    3.395208    -0.788686    35.093800    5.828835    76.862755    8.224185    -0.786602    105.191818    2.167297    -11.151645    19.508274    19.476797    -28.270107    -6.794309    -11.152499    19.279434    -8.090081    -25.375690    11.230843    37.287941    0.000000    0.000000    0.000000    -2.272213    -7.480757    2.504084    8.331475    37.481064    -2.737174    -9.248371    -22.954462    -18.904198    0.000000    0.000000    0.000000    
-1.697111    157.982605    -67.831230    1.152108    -4.626023    -49.048107    -0.475960    1.455664    0.236788    -0.958144    2.554922    0.097476    14.410464    -1.295432    14.282047    -8.863654    8.730064    11.978284    11.683042    -0.696601    -18.249947    -10.610292    -17.329325    -43.928814    7.054786    -39.161232    -26.540066    -23.948874    -29.594759    -44.432713    -8.674753    3.413599    -0.717077    35.069828    5.839983    76.815765    8.242221    -0.709487    105.150734    2.161916    -11.092010    19.533587    19.818684    -28.060846    -6.786493    -11.212369    19.458185    -8.024522    -25.178665    11.195250    37.382000    0.000000    0.000000    0.000000    -2.360577    -7.599670    2.676222    8.338647    37.472691    -2.306536    -9.436384    -22.817968    -19.474655    0.000000    0.000000    0.000000    
-1.393164    158.025772    -67.966835    1.204268    -4.686336    -49.084274    -0.495794    1.455770    0.233419    -0.993781    2.586271    0.097346    14.579696    -1.247492    14.329423    -9.092181    8.732773    11.991923    11.770573    -0.710999    -18.228842    -10.676789    -17.356544    -43.938614    7.044869    -39.082664    -26.551441    -23.898987    -29.526237    -44.434940    -8.615345    3.438975    -0.705035    34.962391    5.834994    76.794876    8.241152    -0.686187    105.163139    2.127564    -11.075977    19.532759    20.160662    -27.855492    -6.707985    -11.248400    19.639071    -7.971737    -24.824770    11.268344    37.301487    0.000000    0.000000    0.000000    -2.434007    -7.743420    2.874968    8.369105    37.488544    -2.309247    -9.243600    -22.813824    -19.687325    0.000000    0.000000    0.000000    
-1.100220    158.055862    -68.079140    1.230146    -4.758682    -49.121078    -0.485766    1.507735    0.229248    -1.036998    2.551347    0.095493    14.643756    -1.187246    14.363766    -9.184654    8.750273    12.020762    11.793401    -0.662342    -18.241129    -10.660494    -17.379807    -43.898132    7.035365    -39.057167    -26.571049    -23.906429    -29.498726    -44.420883    -8.574482    3.444613    -0.672665    34.895348    5.854055    76.743042    8.258955    -0.612967    105.144028    2.125413    -11.023526    19.559626    20.498011    -27.609594    -6.700450    -11.304343    19.770121    -7.871777    -24.526863    11.272414    37.301815    0.000000    0.000000    0.000000    -2.502553    -7.863796    3.038707    8.364312    37.542381    -2.287531    -9.227305    -22.733236    -19.786434    0.000000    0.000000    0.000000    
